<?xml version="1.0" encoding="iso-8859-1"?>
<!-- Generator: Adobe Illustrator 19.1.0, SVG Export Plug-In . SVG Version: 6.00 Build 0)  -->
<svg version="1.1" id="Capa_1" xmlns="http://www.w3.org/2000/svg" xmlns:xlink="http://www.w3.org/1999/xlink" x="0px" y="0px"
	 viewBox="0 0 474 474" style="enable-background:new 0 0 474 474;" xml:space="preserve">
<g>
	<g>
		<path d="M121,214.4H12c-6.6,0-12,5.4-12,12v222.8c0,6.6,5.4,12,12,12h109c6.6,0,12-5.4,12-12V226.4
			C133,219.8,127.7,214.4,121,214.4z M109,437.3H24V238.4h85V437.3z"/>
		<path d="M291.5,437.3c-3.2,0-6.3,1.3-8.5,3.5s-3.5,5.3-3.5,8.5s1.3,6.3,3.5,8.5s5.3,3.5,8.5,3.5s6.3-1.3,8.5-3.5s3.5-5.3,3.5-8.5
			s-1.3-6.3-3.5-8.5C297.7,438.5,294.6,437.3,291.5,437.3z"/>
		<circle cx="237" cy="449.3" r="12"/>
		<path d="M182.5,437.3c-3.2,0-6.3,1.3-8.5,3.5s-3.5,5.3-3.5,8.5s1.3,6.3,3.5,8.5s5.3,3.5,8.5,3.5s6.3-1.3,8.5-3.5s3.5-5.3,3.5-8.5
			s-1.3-6.3-3.5-8.5C188.8,438.5,185.7,437.3,182.5,437.3z"/>
		<path d="M182.5,295.8c-6.6,0-12,5.4-12,12s5.4,12,12,12s12-5.4,12-12C194.5,301.1,189.1,295.8,182.5,295.8z"/>
		<path d="M182.5,342.9c-6.6,0-12,5.4-12,12s5.4,12,12,12s12-5.4,12-12S189.1,342.9,182.5,342.9z"/>
		<circle cx="182.5" cy="402.1" r="12"/>
		<path d="M182.5,107.1c-6.6,0-12,5.4-12,12s5.4,12,12,12s12-5.4,12-12C194.5,112.4,189.1,107.1,182.5,107.1z"/>
		<circle cx="182.5" cy="71.9" r="12"/>
		<path d="M182.5,248.6c-6.6,0-12,5.4-12,12s5.4,12,12,12s12-5.4,12-12S189.1,248.6,182.5,248.6z"/>
		<path d="M182.5,154.2c-6.6,0-12,5.4-12,12s5.4,12,12,12s12-5.4,12-12C194.5,159.6,189.1,154.2,182.5,154.2z"/>
		<path d="M182.5,201.4c-6.6,0-12,5.4-12,12s5.4,12,12,12s12-5.4,12-12C194.5,206.8,189.1,201.4,182.5,201.4z"/>
		<path d="M182.5,12.7c-3.2,0-6.3,1.3-8.5,3.5s-3.5,5.3-3.5,8.5s1.3,6.3,3.5,8.5c2.2,2.2,5.3,3.5,8.5,3.5s6.3-1.3,8.5-3.5
			c2.2-2.2,3.5-5.3,3.5-8.5s-1.3-6.3-3.5-8.5S185.7,12.7,182.5,12.7z"/>
		<circle cx="237" cy="24.7" r="12"/>
		<path d="M291.5,12.7c-3.2,0-6.3,1.3-8.5,3.5s-3.5,5.3-3.5,8.5s1.3,6.3,3.5,8.5c2.2,2.2,5.3,3.5,8.5,3.5s6.3-1.3,8.5-3.5
			c2.2-2.2,3.5-5.3,3.5-8.5s-1.3-6.3-3.5-8.5C297.7,14,294.6,12.7,291.5,12.7z"/>
		<path d="M291.5,59.9c-6.6,0-12,5.4-12,12s5.4,12,12,12s12-5.4,12-12S298.1,59.9,291.5,59.9z"/>
		<path d="M291.5,248.6c-6.6,0-12,5.4-12,12s5.4,12,12,12s12-5.4,12-12S298.1,248.6,291.5,248.6z"/>
		<path d="M291.5,107.1c-6.6,0-12,5.4-12,12s5.4,12,12,12s12-5.4,12-12S298.1,107.1,291.5,107.1z"/>
		<path d="M291.5,342.9c-6.6,0-12,5.4-12,12s5.4,12,12,12s12-5.4,12-12S298.1,342.9,291.5,342.9z"/>
		<path d="M291.5,390.1c-6.6,0-12,5.4-12,12s5.4,12,12,12s12-5.4,12-12S298.1,390.1,291.5,390.1z"/>
		<path d="M291.5,295.8c-6.6,0-12,5.4-12,12s5.4,12,12,12s12-5.4,12-12C303.5,301.1,298.1,295.8,291.5,295.8z"/>
		<path d="M291.5,201.4c-6.6,0-12,5.4-12,12s5.4,12,12,12s12-5.4,12-12C303.5,206.8,298.1,201.4,291.5,201.4z"/>
		<path d="M291.5,154.2c-6.6,0-12,5.4-12,12s5.4,12,12,12s12-5.4,12-12C303.5,159.6,298.1,154.2,291.5,154.2z"/>
		<path d="M461.9,151.3H353c-6.6,0-12,5.4-12,12v286c0,6.6,5.4,12,12,12h109c6.6,0,12-5.4,12-12v-286
			C473.9,156.7,468.5,151.3,461.9,151.3z M449.9,437.3h-85v-262h85V437.3z"/>
	</g>
</g>
<g>
</g>
<g>
</g>
<g>
</g>
<g>
</g>
<g>
</g>
<g>
</g>
<g>
</g>
<g>
</g>
<g>
</g>
<g>
</g>
<g>
</g>
<g>
</g>
<g>
</g>
<g>
</g>
<g>
</g>
</svg>
