<?xml version="1.0" encoding="iso-8859-1"?>
<!-- Generator: Adobe Illustrator 19.1.0, SVG Export Plug-In . SVG Version: 6.00 Build 0)  -->
<svg version="1.1" id="Capa_1" xmlns="http://www.w3.org/2000/svg" xmlns:xlink="http://www.w3.org/1999/xlink" x="0px" y="0px"
	 viewBox="0 0 471.4 471.4" style="enable-background:new 0 0 471.4 471.4;" xml:space="preserve">
<g>
	<g>
		<path d="M459.4,24c3.1,0,6.3-1.3,8.5-3.5s3.5-5.3,3.5-8.5s-1.3-6.3-3.5-8.5S462.6,0,459.4,0s-6.3,1.3-8.5,3.5s-3.5,5.3-3.5,8.5
			s1.3,6.3,3.5,8.5C453.2,22.7,456.3,24,459.4,24z"/>
		<path d="M459.4,357.9c-6.6,0-12,5.4-12,12s5.4,12,12,12s12-5.4,12-12S466.1,357.9,459.4,357.9z"/>
		<path d="M459.4,313.2c-6.6,0-12,5.4-12,12s5.4,12,12,12s12-5.4,12-12S466.1,313.2,459.4,313.2z"/>
		<path d="M459.4,402.7c-6.6,0-12,5.4-12,12s5.4,12,12,12s12-5.4,12-12S466.1,402.7,459.4,402.7z"/>
		<path d="M459.4,89.5c-6.6,0-12,5.4-12,12s5.4,12,12,12s12-5.4,12-12S466.1,89.5,459.4,89.5z"/>
		<path d="M459.4,68.7c6.6,0,12-5.4,12-12s-5.4-12-12-12s-12,5.4-12,12S452.8,68.7,459.4,68.7z"/>
		<path d="M459.4,179c-6.6,0-12,5.4-12,12s5.4,12,12,12s12-5.4,12-12S466.1,179,459.4,179z"/>
		<path d="M459.4,223.7c-6.6,0-12,5.4-12,12s5.4,12,12,12s12-5.4,12-12S466.1,223.7,459.4,223.7z"/>
		<path d="M459.4,268.5c-6.6,0-12,5.4-12,12s5.4,12,12,12s12-5.4,12-12C471.4,273.8,466.1,268.5,459.4,268.5z"/>
		<path d="M459.4,134.2c-6.6,0-12,5.4-12,12s5.4,12,12,12s12-5.4,12-12S466.1,134.2,459.4,134.2z"/>
		<path d="M459.4,447.4c-3.2,0-6.3,1.3-8.5,3.5s-3.5,5.3-3.5,8.5s1.3,6.3,3.5,8.5s5.3,3.5,8.5,3.5c3.1,0,6.3-1.3,8.5-3.5
			s3.5-5.3,3.5-8.5s-1.3-6.3-3.5-8.5S462.6,447.4,459.4,447.4z"/>
		<path d="M369.9,447.4c-6.6,0-12,5.4-12,12s5.4,12,12,12s12-5.4,12-12S376.6,447.4,369.9,447.4z"/>
		<path d="M325.2,447.4c-6.6,0-12,5.4-12,12s5.4,12,12,12s12-5.4,12-12S331.8,447.4,325.2,447.4z"/>
		<path d="M235.7,447.4c-6.6,0-12,5.4-12,12s5.4,12,12,12s12-5.4,12-12S242.3,447.4,235.7,447.4z"/>
		<path d="M191,447.4c-6.6,0-12,5.4-12,12s5.4,12,12,12s12-5.4,12-12S197.6,447.4,191,447.4z"/>
		<path d="M414.7,447.4c-6.6,0-12,5.4-12,12s5.4,12,12,12s12-5.4,12-12S421.3,447.4,414.7,447.4z"/>
		<path d="M56.7,447.4c-6.6,0-12,5.4-12,12s5.4,12,12,12s12-5.4,12-12S63.3,447.4,56.7,447.4z"/>
		<path d="M101.5,447.4c-6.6,0-12,5.4-12,12s5.4,12,12,12c6.6,0,12-5.4,12-12S108.1,447.4,101.5,447.4z"/>
		<path d="M280.5,447.4c-6.6,0-12,5.4-12,12s5.4,12,12,12s12-5.4,12-12S287.1,447.4,280.5,447.4z"/>
		<path d="M146.2,447.4c-6.6,0-12,5.4-12,12s5.4,12,12,12s12-5.4,12-12S152.8,447.4,146.2,447.4z"/>
		<path d="M12,447.4c-3.2,0-6.3,1.3-8.5,3.5S0,456.2,0,459.4s1.3,6.3,3.5,8.5s5.3,3.5,8.5,3.5c3.1,0,6.3-1.3,8.5-3.5
			s3.5-5.3,3.5-8.5s-1.3-6.3-3.5-8.5C18.2,448.7,15.1,447.4,12,447.4z"/>
		<path d="M12,268.5c-6.6,0-12,5.4-12,12s5.4,12,12,12s12-5.4,12-12C24,273.8,18.6,268.5,12,268.5z"/>
		<path d="M12,223.7c-6.6,0-12,5.4-12,12s5.4,12,12,12s12-5.4,12-12S18.6,223.7,12,223.7z"/>
		<path d="M12,402.7c-6.6,0-12,5.4-12,12s5.4,12,12,12s12-5.4,12-12S18.6,402.7,12,402.7z"/>
		<path d="M12,44.7c-6.6,0-12,5.4-12,12s5.4,12,12,12s12-5.4,12-12S18.6,44.7,12,44.7z"/>
		<path d="M12,134.2c-6.6,0-12,5.4-12,12s5.4,12,12,12s12-5.4,12-12S18.6,134.2,12,134.2z"/>
		<path d="M12,357.9c-6.6,0-12,5.4-12,12s5.4,12,12,12s12-5.4,12-12S18.6,357.9,12,357.9z"/>
		<path d="M12,89.5c-6.6,0-12,5.4-12,12s5.4,12,12,12s12-5.4,12-12S18.6,89.5,12,89.5z"/>
		<path d="M12,179c-6.6,0-12,5.4-12,12s5.4,12,12,12s12-5.4,12-12S18.6,179,12,179z"/>
		<path d="M12,313.2c-6.6,0-12,5.4-12,12s5.4,12,12,12s12-5.4,12-12S18.6,313.2,12,313.2z"/>
		<path d="M12,24c3.1,0,6.3-1.3,8.5-3.5S24,15.2,24,12s-1.3-6.3-3.5-8.5S15.2,0,12,0S5.7,1.3,3.5,3.5S0,8.8,0,12s1.3,6.3,3.5,8.5
			S8.8,24,12,24z"/>
		<path d="M369.9,0c-6.6,0-12,5.4-12,12s5.4,12,12,12s12-5.4,12-12C381.9,5.3,376.6,0,369.9,0z"/>
		<path d="M414.7,0c-6.6,0-12,5.4-12,12s5.4,12,12,12s12-5.4,12-12C426.7,5.3,421.3,0,414.7,0z"/>
		<path d="M101.5,0c-6.6,0-12,5.4-12,12s5.4,12,12,12s12-5.4,12-12C113.5,5.3,108.1,0,101.5,0z"/>
		<path d="M56.7,0c-6.6,0-12,5.4-12,12s5.4,12,12,12s12-5.4,12-12C68.7,5.3,63.3,0,56.7,0z"/>
		<path d="M334.6,357.6V12c0-6.6-5.4-12-12-12H147c-6.6,0-12,5.4-12,12v345.6c0,12.7,10.3,23,23,23c5.6,0,11.1-2.1,15.3-5.9
			l61.5-55.5l61.5,55.5c4.2,3.8,9.7,5.9,15.3,5.9C324.3,380.5,334.6,370.2,334.6,357.6z M310.6,355.2l-60.4-54.5
			c-4.2-3.8-9.7-5.9-15.4-5.9s-11.1,2.1-15.4,5.9L159,355.2V24h151.6L310.6,355.2L310.6,355.2z"/>
	</g>
</g>
<g>
</g>
<g>
</g>
<g>
</g>
<g>
</g>
<g>
</g>
<g>
</g>
<g>
</g>
<g>
</g>
<g>
</g>
<g>
</g>
<g>
</g>
<g>
</g>
<g>
</g>
<g>
</g>
<g>
</g>
</svg>
