<?xml version="1.0" encoding="iso-8859-1"?>
<!-- Generator: Adobe Illustrator 19.1.0, SVG Export Plug-In . SVG Version: 6.00 Build 0)  -->
<svg version="1.1" id="Capa_1" xmlns="http://www.w3.org/2000/svg" xmlns:xlink="http://www.w3.org/1999/xlink" x="0px" y="0px"
	 viewBox="0 0 481.2 481.2" style="enable-background:new 0 0 481.2 481.2;" xml:space="preserve">
<g>
	<g>
		<path d="M469.2,24.65H12c-6.6,0-12,5.4-12,12v323.7c0,6.6,5.4,12,12,12h216.6v60.2h-85.7c-6.6,0-12,5.4-12,12s5.4,12,12,12h195.5
			c6.6,0,12-5.4,12-12s-5.4-12-12-12h-85.8v-60.2h216.6c6.6,0,12-5.4,12-12V36.65C481.2,29.95,475.8,24.65,469.2,24.65z
			 M457.2,348.25H24V48.65h433.1v299.6H457.2z"/>
		<path d="M332,306.65c6.6,0,12-5.4,12-12s-5.4-12-12-12s-12,5.4-12,12S325.4,306.65,332,306.65z"/>
		<path d="M194.9,306.65c6.6,0,12-5.4,12-12s-5.4-12-12-12s-12,5.4-12,12S188.3,306.65,194.9,306.65z"/>
		<path d="M240.6,306.65c6.6,0,12-5.4,12-12s-5.4-12-12-12s-12,5.4-12,12S234,306.65,240.6,306.65z"/>
		<path d="M103.5,306.65c6.6,0,12-5.4,12-12s-5.4-12-12-12s-12,5.4-12,12S96.8,306.65,103.5,306.65z"/>
		<path d="M286.3,306.65c6.6,0,12-5.4,12-12s-5.4-12-12-12s-12,5.4-12,12S279.7,306.65,286.3,306.65z"/>
		<path d="M57.7,306.65c6.6,0,12-5.4,12-12s-5.4-12-12-12s-12,5.4-12,12S51.1,306.65,57.7,306.65z"/>
		<circle cx="149.2" cy="294.65" r="12"/>
		<path d="M377.7,306.65c6.6,0,12-5.4,12-12s-5.4-12-12-12s-12,5.4-12,12S371.1,306.65,377.7,306.65z"/>
		<circle cx="423.5" cy="294.65" r="12"/>
	</g>
</g>
<g>
</g>
<g>
</g>
<g>
</g>
<g>
</g>
<g>
</g>
<g>
</g>
<g>
</g>
<g>
</g>
<g>
</g>
<g>
</g>
<g>
</g>
<g>
</g>
<g>
</g>
<g>
</g>
<g>
</g>
</svg>
