<?xml version="1.0" encoding="iso-8859-1"?>
<!-- Generator: Adobe Illustrator 19.1.0, SVG Export Plug-In . SVG Version: 6.00 Build 0)  -->
<svg version="1.1" id="Capa_1" xmlns="http://www.w3.org/2000/svg" xmlns:xlink="http://www.w3.org/1999/xlink" x="0px" y="0px"
	 viewBox="0 0 478.036 478.036" style="enable-background:new 0 0 478.036 478.036;" xml:space="preserve">
<g>
	<g>
		<path d="M478.036,193.401c0-3.6-1.6-7-4.4-9.2l-212.2-175c-3.6-3-8.6-3.6-12.8-1.6c-4.2,2-6.9,6.2-6.9,10.9v93.4
			c-103.1,3.4-173.9,39.6-210.7,107.5c-31.6,58.4-31.2,127.8-31,173.6c0,3.7,0,7.3,0,10.7c0,5.4,3.7,10.2,8.9,11.6
			c1,0.3,2,0.4,3.1,0.4c4.2,0,8.3-2.3,10.4-6.1c72.6-128,132.3-133.6,219.3-133.9v93.3c0,4.6,2.7,8.9,6.9,10.9s9.2,1.3,12.8-1.6
			l212.2-175.6C476.436,200.401,478.036,197.001,478.036,193.401z M265.836,343.501v-79.7c0-3.2-1.3-6.2-3.5-8.5
			c-2.3-2.3-5.3-3.5-8.5-3.5c-53.4,0-94.3,1.5-133.9,19.9c-35.2,16.4-65.6,44.6-95.7,89.4c0.9-40.1,5.7-89,28-130.3
			c34.1-63.1,100.1-94.3,201.8-95.3c6.6-0.1,11.9-5.4,11.9-12v-79.6l181.3,149.6L265.836,343.501z"/>
		<path d="M463.336,264.001c-3.2,0-6.3,1.3-8.5,3.5s-3.5,5.3-3.5,8.5s1.3,6.3,3.5,8.5s5.3,3.5,8.5,3.5s6.3-1.3,8.5-3.5
			s3.5-5.3,3.5-8.5s-1.3-6.3-3.5-8.5C469.536,265.301,466.436,264.001,463.336,264.001z"/>
		<circle cx="463.336" cy="321.901" r="12"/>
		<path d="M463.336,355.801c-6.6,0-12,5.4-12,12s5.4,12,12,12s12-5.4,12-12C475.336,361.101,469.936,355.801,463.336,355.801z"/>
		<path d="M463.336,401.701c-6.6,0-12,5.4-12,12s5.4,12,12,12s12-5.4,12-12C475.336,407.001,469.936,401.701,463.336,401.701z"/>
		<path d="M463.336,447.601c-3.2,0-6.3,1.3-8.5,3.5s-3.5,5.3-3.5,8.5s1.3,6.3,3.5,8.5s5.3,3.5,8.5,3.5s6.3-1.3,8.5-3.5
			s3.5-5.3,3.5-8.5s-1.3-6.3-3.5-8.5C469.536,448.801,466.436,447.601,463.336,447.601z"/>
		<path d="M373.036,447.601c-6.6,0-12,5.4-12,12s5.4,12,12,12s12-5.4,12-12C385.036,452.901,379.736,447.601,373.036,447.601z"/>
		<path d="M147.436,447.601c-6.6,0-12,5.4-12,12s5.4,12,12,12s12-5.4,12-12C159.436,452.901,154.136,447.601,147.436,447.601z"/>
		<path d="M327.936,447.601c-6.6,0-12,5.4-12,12s5.4,12,12,12s12-5.4,12-12C339.936,452.901,334.536,447.601,327.936,447.601z"/>
		<path d="M418.236,447.601c-6.6,0-12,5.4-12,12s5.4,12,12,12s12-5.4,12-12C430.236,452.901,424.836,447.601,418.236,447.601z"/>
		<path d="M102.336,447.601c-6.6,0-12,5.4-12,12s5.4,12,12,12s12-5.4,12-12C114.336,452.901,108.936,447.601,102.336,447.601z"/>
		<path d="M192.636,447.601c-6.6,0-12,5.4-12,12s5.4,12,12,12s12-5.4,12-12C204.636,452.901,199.236,447.601,192.636,447.601z"/>
		<path d="M282.836,447.601c-6.6,0-12,5.4-12,12s5.4,12,12,12s12-5.4,12-12C294.836,452.901,289.436,447.601,282.836,447.601z"/>
		<path d="M237.736,447.601c-6.6,0-12,5.4-12,12s5.4,12,12,12c6.6,0,12-5.4,12-12C249.736,452.901,244.336,447.601,237.736,447.601z
			"/>
		<path d="M57.236,447.601c-6.6,0-12,5.4-12,12s5.4,12,12,12s12-5.4,12-12C69.236,452.901,63.836,447.601,57.236,447.601z"/>
		<path d="M12.136,447.601c-3.2,0-6.3,1.3-8.5,3.5s-3.5,5.3-3.5,8.5s1.3,6.3,3.5,8.5s5.3,3.5,8.5,3.5s6.3-1.3,8.5-3.5
			c2.2-2.2,3.5-5.3,3.5-8.5s-1.3-6.3-3.5-8.5C18.336,448.801,15.236,447.601,12.136,447.601z"/>
	</g>
</g>
<g>
</g>
<g>
</g>
<g>
</g>
<g>
</g>
<g>
</g>
<g>
</g>
<g>
</g>
<g>
</g>
<g>
</g>
<g>
</g>
<g>
</g>
<g>
</g>
<g>
</g>
<g>
</g>
<g>
</g>
</svg>
