<?xml version="1.0" encoding="iso-8859-1"?>
<!-- Generator: Adobe Illustrator 19.1.0, SVG Export Plug-In . SVG Version: 6.00 Build 0)  -->
<svg version="1.1" id="Capa_1" xmlns="http://www.w3.org/2000/svg" xmlns:xlink="http://www.w3.org/1999/xlink" x="0px" y="0px"
	 viewBox="0 0 478.9 478.9" style="enable-background:new 0 0 478.9 478.9;" xml:space="preserve">
<g>
	<g>
		<path d="M279.75,24c3.2,0,6.3-1.3,8.5-3.5s3.5-5.3,3.5-8.5s-1.3-6.3-3.5-8.5s-5.3-3.5-8.5-3.5s-6.3,1.3-8.5,3.5s-3.5,5.3-3.5,8.5
			c0,3.1,1.3,6.3,3.5,8.5S276.55,24,279.75,24z"/>
		<path d="M279.75,70.7c6.6,0,12-5.4,12-12s-5.4-12-12-12s-12,5.4-12,12C267.75,65.4,273.05,70.7,279.75,70.7z"/>
		<path d="M279.75,164.3c6.6,0,12-5.4,12-12s-5.4-12-12-12s-12,5.4-12,12C267.75,159,273.05,164.3,279.75,164.3z"/>
		<circle cx="279.75" cy="105.5" r="12"/>
		<path d="M279.75,211.1c3.2,0,6.3-1.3,8.5-3.5c2.2-2.2,3.5-5.3,3.5-8.5c0-3.2-1.3-6.3-3.5-8.5c-2.2-2.2-5.3-3.5-8.5-3.5
			s-6.3,1.3-8.5,3.5c-2.2,2.2-3.5,5.3-3.5,8.5c0,3.2,1.3,6.3,3.5,8.5C273.45,209.9,276.55,211.1,279.75,211.1z"/>
		<circle cx="420.05" cy="199.1" r="12"/>
		<path d="M326.55,211.1c6.6,0,12-5.4,12-12s-5.4-12-12-12s-12,5.4-12,12S319.85,211.1,326.55,211.1z"/>
		<path d="M373.25,211.1c6.6,0,12-5.4,12-12s-5.4-12-12-12s-12,5.4-12,12S366.65,211.1,373.25,211.1z"/>
		<path d="M475.35,190.7c-2.2-2.2-5.3-3.5-8.5-3.5s-6.3,1.3-8.5,3.5c-2.2,2.2-3.5,5.3-3.5,8.5c0,3.2,1.3,6.3,3.5,8.5
			c2.2,2.2,5.3,3.5,8.5,3.5s6.3-1.3,8.5-3.5c2.2-2.2,3.5-5.3,3.5-8.5C478.85,196,477.65,192.9,475.35,190.7z"/>
		<path d="M463.65,162.3c6.4-1.7,10.2-8.3,8.5-14.7s-8.3-10.2-14.7-8.5c-6.4,1.7-10.2,8.3-8.5,14.7c1.4,5.4,6.3,8.9,11.6,8.9
			C461.55,162.7,462.65,162.5,463.65,162.3z"/>
		<path d="M452.25,99.5c-3.3-5.7-10.7-7.7-16.4-4.4c-5.7,3.3-7.7,10.7-4.4,16.4c2.2,3.8,6.3,6,10.4,6c2,0,4.1-0.5,6-1.6
			C453.55,112.6,455.55,105.3,452.25,99.5z"/>
		<path d="M367.35,47.4c1.9,1.1,4,1.6,6,1.6c4.2,0,8.2-2.1,10.4-6c3.3-5.7,1.4-13.1-4.4-16.4c-5.7-3.3-13.1-1.4-16.4,4.4
			C359.65,36.7,361.55,44.1,367.35,47.4z"/>
		<path d="M412.05,78.8c3.1,0,6.2-1.2,8.5-3.5c4.7-4.7,4.7-12.3,0-17s-12.3-4.7-17,0s-4.7,12.3,0,17
			C405.95,77.6,408.95,78.8,412.05,78.8z"/>
		<path d="M325.15,29.9c1,0.3,2.1,0.4,3.1,0.4c5.3,0,10.1-3.5,11.6-8.9c1.7-6.4-2.1-13-8.5-14.7s-13,2.1-14.7,8.5
			S318.75,28.2,325.15,29.9z"/>
		<path d="M423.35,249.2h-193.7V55.5c0-6.6-5.4-12-12-12c-58.1,0-112.8,22.6-153.9,63.8c-41.1,41.1-63.7,95.7-63.7,153.9
			s22.6,112.8,63.8,153.9c41.1,41.1,95.8,63.8,153.9,63.8s112.8-22.6,153.9-63.8c41.1-41.1,63.8-95.8,63.8-153.9
			C435.35,254.5,429.95,249.2,423.35,249.2z M217.65,454.8c-106.8,0-193.7-86.9-193.7-193.7c0.1-102.7,80.5-187,181.7-193.3v193.3
			c0,6.6,5.4,12,12,12h193.3C404.75,374.4,320.45,454.8,217.65,454.8z"/>
	</g>
</g>
<g>
</g>
<g>
</g>
<g>
</g>
<g>
</g>
<g>
</g>
<g>
</g>
<g>
</g>
<g>
</g>
<g>
</g>
<g>
</g>
<g>
</g>
<g>
</g>
<g>
</g>
<g>
</g>
<g>
</g>
</svg>
