<?xml version="1.0" encoding="iso-8859-1"?>
<!-- Generator: Adobe Illustrator 19.1.0, SVG Export Plug-In . SVG Version: 6.00 Build 0)  -->
<svg version="1.1" id="Capa_1" xmlns="http://www.w3.org/2000/svg" xmlns:xlink="http://www.w3.org/1999/xlink" x="0px" y="0px"
	 viewBox="0 0 484.401 484.401" style="enable-background:new 0 0 484.401 484.401;" xml:space="preserve">
<g>
	<g>
		<path d="M286.6,419.139h-19.2v-14.7c0-3.5-1.5-6.8-4.1-9c-2.6-2.3-6.1-3.3-9.5-2.9c-9,1.2-18.2,1.8-27.3,1.8
			c-7.1,0-14.3-0.4-21.4-1.1c-3.4-0.4-6.8,0.7-9.3,3s-4,5.5-4,8.9v14h-62.4v-14.7c0-0.1,0-0.2,0-0.3c-0.2-7.2-2.5-32.1-25.9-53.3
			c-0.1-0.1-0.2-0.2-0.3-0.2c-0.8-0.7-1.6-1.4-2.4-2.1l-0.1-0.1c-0.1-0.1-0.1-0.1-0.2-0.2c-21.1-18.7-36.3-41.9-43.9-67
			c-1.5-5-6.2-8.5-11.5-8.5H31.6c-4.2,0-7.7-3.5-7.7-7.7v-48.6c0-4.2,3.5-7.7,7.7-7.7h14.3c5.3,0.1,10-3.2,11.6-8.3
			c8.7-26.6,25.8-50.8,49.3-69.8c2.7-2.2,4.3-5.5,4.5-8.9c5.2-18.1,1.7-37.6-9.9-56.4c28.8,3.7,43.9,17.8,51.4,29
			c3.7,5.5,11.2,6.9,16.7,3.2c5.5-3.7,6.9-11.2,3.2-16.7c-10.4-15.4-30.7-34.7-68.8-39.4c-9.2-1.1-18,3-23,10.8s-5,17.6-0.1,25.4
			c8.2,13,10.7,25.6,7.5,37.2c-23,19.5-40.3,43.4-50.6,69.9h-6c-17.5,0-31.7,14.2-31.7,31.7v48.6c0,17.5,14.2,31.7,31.7,31.7h5
			c9.5,25.9,25.9,49.6,47.7,69.1c0.2,0.2,0.4,0.4,0.7,0.6l0,0c0.1,0,0.1,0.1,0.2,0.1c0.8,0.7,1.6,1.4,2.5,2.1
			c16.4,14.9,17.8,32.2,17.9,35.9v15.9c0,12.5,10.2,22.7,22.7,22.7h64.8c12.5,0,22.7-10.2,22.7-22.7v-2.4c9.2,0.4,18.4,0.3,27.6-0.4
			v2.8c0,12.5,10.2,22.7,22.7,22.7h20.5c6.6,0,12-5.4,12-12S293.2,419.139,286.6,419.139z"/>
		<path d="M472.5,325.239h-14.7v-24.2c0-32-26-58.1-58.1-58.1c-32,0-58.1,26-58.1,58.1v24.2h-14.7c-6.6,0-12,5.4-12,12v93.9
			c0,6.6,5.4,12,12,12h145.5c6.6,0,12-5.4,12-12v-93.9C484.5,330.639,479.1,325.239,472.5,325.239z M365.7,301.039
			c0-18.8,15.3-34.1,34.1-34.1s34.1,15.3,34.1,34.1v24.2h-68.1v-24.2H365.7z M460.5,419.139H339v-69.9h121.5V419.139z"/>
		<path d="M366.4,144.439c3.1,0,6.2-1.2,8.6-3.6c4.6-4.7,4.5-12.3-0.2-17c-4.8-4.6-12.3-4.5-17,0.2c-4.6,4.7-4.5,12.3,0.2,17
			C360.3,143.239,363.3,144.439,366.4,144.439z"/>
		<path d="M325.5,116.239c1.9,1.1,4,1.7,6.1,1.7c4.1,0,8.1-2.1,10.3-5.9c3.4-5.7,1.5-13.1-4.2-16.4s-13.1-1.5-16.4,4.2
			C318,105.439,319.8,112.839,325.5,116.239z"/>
		<path d="M393.4,178.639c2.1,0,4.2-0.5,6.1-1.7c5.7-3.4,7.6-10.7,4.2-16.4s-10.7-7.6-16.4-4.2c-5.7,3.4-7.6,10.7-4.2,16.4
			C385.3,176.539,389.3,178.639,393.4,178.639z"/>
		<path d="M205.5,90.739c0.4,0,0.8,0,1.2-0.1c6.6-0.6,11.4-6.5,10.8-13.1c-0.6-6.6-6.5-11.4-13.1-10.8s-11.4,6.5-10.8,13.1
			C194.1,86.139,199.4,90.739,205.5,90.739z"/>
		<path d="M247.9,90.839c0.4,0,0.9,0.1,1.3,0.1c6.1,0,11.3-4.6,11.9-10.8c0.7-6.6-4.1-12.5-10.7-13.2c-6.6-0.7-12.5,4.1-13.2,10.7
			C236.5,84.239,241.3,90.139,247.9,90.839z"/>
		<path d="M295.6,76.539c-6.3-2.1-13.1,1.4-15.1,7.7c-2,6.3,1.4,13.1,7.7,15.1c1.2,0.4,2.5,0.6,3.7,0.6c5.1,0,9.8-3.2,11.4-8.3
			C305.3,85.339,301.9,78.639,295.6,76.539z"/>
		<path d="M398,206.939c0,3.2,1.3,6.3,3.5,8.5s5.3,3.5,8.5,3.5s6.3-1.3,8.5-3.5s3.5-5.3,3.5-8.5s-1.3-6.3-3.5-8.5s-5.3-3.5-8.5-3.5
			s-6.3,1.3-8.5,3.5C399.3,200.739,398,203.839,398,206.939z"/>
	</g>
</g>
<g>
</g>
<g>
</g>
<g>
</g>
<g>
</g>
<g>
</g>
<g>
</g>
<g>
</g>
<g>
</g>
<g>
</g>
<g>
</g>
<g>
</g>
<g>
</g>
<g>
</g>
<g>
</g>
<g>
</g>
</svg>
