<?xml version="1.0" encoding="iso-8859-1"?>
<!-- Generator: Adobe Illustrator 19.1.0, SVG Export Plug-In . SVG Version: 6.00 Build 0)  -->
<svg version="1.1" id="Capa_1" xmlns="http://www.w3.org/2000/svg" xmlns:xlink="http://www.w3.org/1999/xlink" x="0px" y="0px"
	 viewBox="0 0 460.05 460.05" style="enable-background:new 0 0 460.05 460.05;" xml:space="preserve">
<g>
	<g>
		<path d="M229.025,370.337c-24.4,0-44.3,20-44.3,44.5s19.9,44.5,44.3,44.5s44.3-20,44.3-44.5S253.425,370.337,229.025,370.337z
			 M229.025,435.337c-11.2,0-20.3-9.2-20.3-20.5s9.1-20.5,20.3-20.5c11.2,0,20.3,9.2,20.3,20.5S240.225,435.337,229.025,435.337z"/>
		<path d="M66.525,84.238c2.3,2.3,5.4,3.5,8.5,3.5s6.1-1.2,8.5-3.5c4.7-4.7,4.7-12.3,0-17l-23-23l23-23c4.7-4.7,4.7-12.3,0-17
			s-12.3-4.7-17,0l-23,23l-23-23c-4.7-4.7-12.3-4.7-17,0s-4.7,12.3,0,17l23,23l-23,23c-4.7,4.7-4.7,12.3,0,17
			c2.3,2.3,5.4,3.5,8.5,3.5s6.1-1.2,8.5-3.5l23-23L66.525,84.238z"/>
		<path d="M206.125,84.238c2.3,2.3,5.3,3.5,8.5,3.5s6.2-1.3,8.5-3.5l63-63c4.7-4.7,4.7-12.3,0-17s-12.3-4.7-17,0l-54.5,54.5
			l-17.3-17.3c-4.7-4.7-12.3-4.7-17,0s-4.7,12.3,0,17L206.125,84.238z"/>
		<path d="M229.025,348.138c6.6,0,12-5.4,12-12s-5.4-12-12-12s-12,5.4-12,12S222.325,348.138,229.025,348.138z"/>
		<path d="M229.025,302.238c6.6,0,12-5.4,12-12s-5.4-12-12-12s-12,5.4-12,12S222.325,302.238,229.025,302.238z"/>
		<path d="M229.025,256.337c6.6,0,12-5.4,12-12s-5.4-12-12-12s-12,5.4-12,12C217.025,251.038,222.325,256.337,229.025,256.337z"/>
		<path d="M433.525,44.238l23-23c4.7-4.7,4.7-12.3,0-17s-12.3-4.7-17,0l-23,23l-23-23c-4.7-4.7-12.3-4.7-17,0s-4.7,12.3,0,17l23,23
			l-23,23c-4.7,4.7-4.7,12.3,0,17c2.3,2.3,5.4,3.5,8.5,3.5s6.1-1.2,8.5-3.5l23-23l23,23c2.3,2.3,5.4,3.5,8.5,3.5s6.1-1.2,8.5-3.5
			c4.7-4.7,4.7-12.3,0-17L433.525,44.238z"/>
		<path d="M416.525,109.238c-6.6,0-12,5.4-12,12v65.2h-163.5v-65.2c0-6.6-5.4-12-12-12s-12,5.4-12,12v65.2h-161.5v-65.2
			c0-6.6-5.4-12-12-12s-12,5.4-12,12v77.2c0,6.6,5.4,12,12,12h373c6.6,0,12-5.4,12-12v-77.2
			C428.525,114.638,423.125,109.238,416.525,109.238z"/>
	</g>
</g>
<g>
</g>
<g>
</g>
<g>
</g>
<g>
</g>
<g>
</g>
<g>
</g>
<g>
</g>
<g>
</g>
<g>
</g>
<g>
</g>
<g>
</g>
<g>
</g>
<g>
</g>
<g>
</g>
<g>
</g>
</svg>
