<?xml version="1.0" encoding="iso-8859-1"?>
<!-- Generator: Adobe Illustrator 19.1.0, SVG Export Plug-In . SVG Version: 6.00 Build 0)  -->
<svg version="1.1" id="Capa_1" xmlns="http://www.w3.org/2000/svg" xmlns:xlink="http://www.w3.org/1999/xlink" x="0px" y="0px"
	 viewBox="0 0 455.425 455.425" style="enable-background:new 0 0 455.425 455.425;" xml:space="preserve">
<g>
	<g>
		<path d="M44.363,182.825c-24.3,0-44.1,19.7-44.1,43.9s19.8,43.9,44.1,43.9s44.1-19.7,44.1-43.9
			C88.563,202.525,68.763,182.825,44.363,182.825z M44.363,246.625c-11.1,0-20.1-8.9-20.1-19.9s9-19.9,20.1-19.9s20.2,8.9,20.2,19.9
			S55.463,246.625,44.363,246.625z"/>
		<path d="M411.062,270.625c24.3,0,44.1-19.7,44.1-43.9s-19.8-43.9-44.1-43.9s-44.1,19.7-44.1,43.9
			C366.963,250.925,386.763,270.625,411.062,270.625z M411.062,206.825c11.1,0,20.1,8.9,20.1,19.9s-9,19.9-20.1,19.9
			s-20.1-8.9-20.1-19.9S399.963,206.825,411.062,206.825z"/>
		<path d="M371.463,82.925c2.3,2.3,5.4,3.5,8.5,3.5s6.1-1.2,8.5-3.5l22.7-22.7l22.7,22.7c2.3,2.3,5.4,3.5,8.5,3.5s6.1-1.2,8.5-3.5
			c4.7-4.7,4.7-12.3,0-17l-22.7-22.7l22.7-22.7c4.7-4.7,4.7-12.3,0-17s-12.3-4.7-17,0l-22.7,22.7l-22.7-22.7c-4.7-4.7-12.3-4.7-17,0
			s-4.7,12.3,0,17l22.7,22.7l-22.7,22.7C366.763,70.625,366.763,78.225,371.463,82.925z"/>
		<path d="M450.763,372.525c-4.7-4.7-12.3-4.7-17,0l-22.7,22.7l-22.7-22.7c-4.7-4.7-12.3-4.7-17,0s-4.7,12.3,0,17l22.7,22.7
			l-22.7,22.7c-4.7,4.7-4.7,12.3,0,17c2.3,2.3,5.4,3.5,8.5,3.5s6.1-1.2,8.5-3.5l22.7-22.7l22.7,22.7c2.3,2.3,5.4,3.5,8.5,3.5
			s6.1-1.2,8.5-3.5c4.7-4.7,4.7-12.3,0-17l-22.7-22.7l22.7-22.7C455.463,384.825,455.463,377.225,450.763,372.525z"/>
		<path d="M337.263,399.225c-3.2,0-6.3,1.3-8.5,3.5s-3.5,5.3-3.5,8.5s1.3,6.3,3.5,8.5s5.3,3.5,8.5,3.5s6.3-1.3,8.5-3.5
			s3.5-5.3,3.5-8.5s-1.3-6.3-3.5-8.5S340.463,399.225,337.263,399.225z"/>
		<path d="M297.863,399.225c-6.6,0-12,5.4-12,12s5.4,12,12,12s12-5.4,12-12S304.463,399.225,297.863,399.225z"/>
		<path d="M258.463,399.225c-3.2,0-6.3,1.3-8.5,3.5s-3.5,5.3-3.5,8.5s1.3,6.3,3.5,8.5s5.3,3.5,8.5,3.5s6.3-1.3,8.5-3.5
			s3.5-5.3,3.5-8.5s-1.3-6.3-3.5-8.5C264.663,400.525,261.562,399.225,258.463,399.225z"/>
		<path d="M258.463,353.125c-6.6,0-12,5.4-12,12s5.4,12,12,12s12-5.4,12-12C270.463,358.425,265.062,353.125,258.463,353.125z"/>
		<path d="M258.463,214.725C258.463,214.725,258.363,214.725,258.463,214.725c-0.1,0-0.2,0-0.2,0c-3.2,0-6.3,1.3-8.5,3.5
			s-3.5,5.3-3.5,8.5c0,3.2,1.3,6.3,3.5,8.5s5.3,3.5,8.5,3.5h0.1h0.1c6.6,0,12-5.4,12-12S265.062,214.725,258.463,214.725z"/>
		<path d="M258.463,122.425c-6.6,0-12,5.4-12,12c0,6.6,5.4,12,12,12s12-5.4,12-12C270.463,127.825,265.062,122.425,258.463,122.425z
			"/>
		<path d="M258.463,76.325c-6.6,0-12,5.4-12,12s5.4,12,12,12s12-5.4,12-12C270.463,81.725,265.062,76.325,258.463,76.325z"/>
		<path d="M258.463,260.825c-6.6,0-12,5.4-12,12s5.4,12,12,12s12-5.4,12-12S265.062,260.825,258.463,260.825z"/>
		<path d="M258.463,168.625c-6.6,0-12,5.4-12,12s5.4,12,12,12s12-5.4,12-12C270.463,173.925,265.062,168.625,258.463,168.625z"/>
		<path d="M258.463,306.925c-6.6,0-12,5.4-12,12s5.4,12,12,12s12-5.4,12-12S265.062,306.925,258.463,306.925z"/>
		<path d="M258.463,30.225c-3.2,0-6.3,1.3-8.5,3.5c-2.2,2.2-3.5,5.3-3.5,8.5s1.3,6.3,3.5,8.5s5.3,3.5,8.5,3.5s6.3-1.3,8.5-3.5
			s3.5-5.3,3.5-8.5s-1.3-6.3-3.5-8.5C264.663,31.525,261.562,30.225,258.463,30.225z"/>
		<path d="M297.863,30.225c-6.6,0-12,5.4-12,12s5.4,12,12,12s12-5.4,12-12S304.463,30.225,297.863,30.225z"/>
		<path d="M337.263,30.225c-3.2,0-6.3,1.3-8.5,3.5c-2.2,2.2-3.5,5.3-3.5,8.5s1.3,6.3,3.5,8.5s5.3,3.5,8.5,3.5s6.3-1.3,8.5-3.5
			s3.5-5.3,3.5-8.5s-1.3-6.3-3.5-8.5C343.562,31.525,340.463,30.225,337.263,30.225z"/>
		<path d="M164.963,214.725c-6.6,0-12,5.4-12,12s5.4,12,12,12s12-5.4,12-12S171.563,214.725,164.963,214.725z"/>
		<path d="M211.563,214.725c-6.6,0-12,5.4-12,12s5.4,12,12,12s12-5.4,12-12S218.263,214.725,211.563,214.725z"/>
		<path d="M118.263,214.725c-3.2,0-6.3,1.3-8.5,3.5s-3.5,5.3-3.5,8.5c0,3.2,1.3,6.3,3.5,8.5s5.3,3.5,8.5,3.5s6.3-1.3,8.5-3.5
			s3.5-5.3,3.5-8.5c0-3.2-1.3-6.3-3.5-8.5S121.463,214.725,118.263,214.725z"/>
	</g>
</g>
<g>
</g>
<g>
</g>
<g>
</g>
<g>
</g>
<g>
</g>
<g>
</g>
<g>
</g>
<g>
</g>
<g>
</g>
<g>
</g>
<g>
</g>
<g>
</g>
<g>
</g>
<g>
</g>
<g>
</g>
</svg>
