<?xml version="1.0" encoding="iso-8859-1"?>
<!-- Generator: Adobe Illustrator 19.1.0, SVG Export Plug-In . SVG Version: 6.00 Build 0)  -->
<svg version="1.1" id="Capa_1" xmlns="http://www.w3.org/2000/svg" xmlns:xlink="http://www.w3.org/1999/xlink" x="0px" y="0px"
	 viewBox="0 0 489 489" style="enable-background:new 0 0 489 489;" xml:space="preserve">
<g>
	<g>
		<path d="M439.1,117.8c-6.6,0-12,5.4-12,12v263.5H61.9V129.8c0-6.6-5.4-12-12-12s-12,5.4-12,12v275.5c0,6.6,5.4,12,12,12h182.6V465
			h-71.2c-6.6,0-12,5.4-12,12s5.4,12,12,12h166.4c6.6,0,12-5.4,12-12s-5.4-12-12-12h-71.2v-47.7h182.6c6.6,0,12-5.4,12-12V129.8
			C451.1,123.2,445.7,117.8,439.1,117.8z"/>
		<path d="M233.4,353.3c2.3,3,5.8,4.7,9.5,4.7c3.7,0,7.3-1.7,9.5-4.7l53.2-69.8c1.6-2.1,2.5-4.6,2.5-7.3v-211
			c0-36-29.3-65.2-65.2-65.2c-36,0-65.2,29.3-65.2,65.2c0,0.1,0,0.1,0,0.2s0,0.1,0,0.2v210.7c0,2.6,0.9,5.2,2.5,7.3L233.4,353.3z
			 M242.9,24c18.3,0,33.8,12,39.2,28.5h-78.4C209.1,36,224.6,24,242.9,24z M201.7,76.5h29.2v198c0,6.6,5.4,12,12,12s12-5.4,12-12
			v-198h29.2v195.7l-41.2,54.1l-41.2-54.1L201.7,76.5L201.7,76.5z"/>
		<path d="M97,141.8c6.6,0,12-5.4,12-12s-5.4-12-12-12c-6.6,0-12,5.4-12,12C85,136.4,90.4,141.8,97,141.8z"/>
		<path d="M144,141.8c3.2,0,6.3-1.3,8.5-3.5s3.5-5.3,3.5-8.5s-1.3-6.3-3.5-8.5s-5.3-3.5-8.5-3.5s-6.3,1.3-8.5,3.5s-3.5,5.3-3.5,8.5
			s1.3,6.3,3.5,8.5C137.8,140.5,140.9,141.8,144,141.8z"/>
		<path d="M337.9,141.8c3.2,0,6.3-1.3,8.5-3.5s3.5-5.3,3.5-8.5c0-3.1-1.3-6.3-3.5-8.5s-5.3-3.5-8.5-3.5s-6.3,1.3-8.5,3.5
			s-3.5,5.3-3.5,8.5s1.3,6.3,3.5,8.5C331.7,140.5,334.8,141.8,337.9,141.8z"/>
		<path d="M388.5,141.8c6.6,0,12-5.4,12-12s-5.4-12-12-12s-12,5.4-12,12C376.5,136.4,381.9,141.8,388.5,141.8z"/>
	</g>
</g>
<g>
</g>
<g>
</g>
<g>
</g>
<g>
</g>
<g>
</g>
<g>
</g>
<g>
</g>
<g>
</g>
<g>
</g>
<g>
</g>
<g>
</g>
<g>
</g>
<g>
</g>
<g>
</g>
<g>
</g>
</svg>
