<?xml version="1.0" encoding="iso-8859-1"?>
<!-- Generator: Adobe Illustrator 19.1.0, SVG Export Plug-In . SVG Version: 6.00 Build 0)  -->
<svg version="1.1" id="Capa_1" xmlns="http://www.w3.org/2000/svg" xmlns:xlink="http://www.w3.org/1999/xlink" x="0px" y="0px"
	 viewBox="0 0 472.1 472.1" style="enable-background:new 0 0 472.1 472.1;" xml:space="preserve">
<g>
	<g>
		<path d="M420.028,70.9c-3.7-0.5-7.4-0.9-11.2-1.3c-11.4-1.3-22.2-2.6-32.8-4.9c-40.9-9-80.3-27.3-123.8-57.6
			c-5.9-4.1-10.1-7.1-16.3-7.1s-10.6,3.1-16.3,6.9c-58,40.1-110.6,60.4-165.3,63.9c-6.3,0.4-12.8,1.5-17.6,6.8
			c-4.7,5.2-5,11.8-5,17.6c0,13.7,0,27.4,0,41.1c-0.1,38-0.1,77.2,0.3,115.9c0.1,13.5,1.9,27.5,5.1,41.7c7.5,33,24.9,62.8,52.9,91.2
			c35.8,36.2,80.8,64.2,137.7,85.6c2.5,0.9,5.2,1.4,8.1,1.4l0,0c3.6,0,7.3-0.7,10.5-2.1c3.3-1.5,6.7-2.9,10-4.3
			c13.9-6,28.4-12.2,42.2-19.5c45.8-24.2,80.4-52.7,105.7-87.1c22.2-30.2,33.7-60.4,35.1-92.3c0-0.1,0-0.3,0-0.4l1.1-172.9
			C440.228,84.3,436.728,73,420.028,70.9z M415.228,265.9c-1.2,26.9-11.2,52.7-30.4,78.9c-23.1,31.4-55.1,57.6-97.6,80.1
			c-13,6.9-26.9,12.9-40.5,18.7c-3.4,1.5-6.8,2.9-10.1,4.4c-0.1,0-0.5,0.1-0.9,0.1c-53.3-20.1-95.4-46.3-128.7-79.9
			c-24.9-25.1-40.1-51.2-46.6-79.7c-2.9-12.5-4.4-24.8-4.5-36.5c-0.4-38.5-0.3-77.7-0.3-115.6c0-13.7,0-27.4,0-41.1
			c0-0.2,0-0.3,0-0.5h0.1c59.3-3.7,115.7-25.4,177.6-68c0.7-0.5,1.7-1.2,2.6-1.8c0.8,0.6,1.7,1.2,2.6,1.8
			c45.5,31.7,88.8,51.8,132.3,61.3c11.7,2.6,23.6,4,35.2,5.3c3.4,0.4,6.8,0.8,10.1,1.2L415.228,265.9z"/>
		<path d="M235.928,89c-6.6,0-12,5.4-12,12s5.4,12,12,12s12-5.4,12-12S242.528,89,235.928,89z"/>
		<path d="M235.928,222.6c-6.6,0-12,5.4-12,12s5.4,12,12,12s12-5.4,12-12S242.528,222.6,235.928,222.6z"/>
		<path d="M235.928,178.1c-6.6,0-12,5.4-12,12s5.4,12,12,12s12-5.4,12-12S242.528,178.1,235.928,178.1z"/>
		<path d="M235.928,267.1c-6.6,0-12,5.4-12,12s5.4,12,12,12s12-5.4,12-12S242.528,267.1,235.928,267.1z"/>
		<path d="M235.928,311.7c-6.6,0-12,5.4-12,12s5.4,12,12,12s12-5.4,12-12S242.528,311.7,235.928,311.7z"/>
		<path d="M235.928,133.6c-6.6,0-12,5.4-12,12s5.4,12,12,12s12-5.4,12-12C247.928,138.9,242.528,133.6,235.928,133.6z"/>
		<path d="M235.928,44.5c-6.6,0-12,5.4-12,12s5.4,12,12,12s12-5.4,12-12S242.528,44.5,235.928,44.5z"/>
		<path d="M235.928,356.2c-6.6,0-12,5.4-12,12s5.4,12,12,12s12-5.4,12-12S242.528,356.2,235.928,356.2z"/>
		<path d="M235.928,400.7c-6.6,0-12,5.4-12,12s5.4,12,12,12s12-5.4,12-12S242.528,400.7,235.928,400.7z"/>
	</g>
</g>
<g>
</g>
<g>
</g>
<g>
</g>
<g>
</g>
<g>
</g>
<g>
</g>
<g>
</g>
<g>
</g>
<g>
</g>
<g>
</g>
<g>
</g>
<g>
</g>
<g>
</g>
<g>
</g>
<g>
</g>
</svg>
