<?xml version="1.0" encoding="iso-8859-1"?>
<!-- Generator: Adobe Illustrator 19.1.0, SVG Export Plug-In . SVG Version: 6.00 Build 0)  -->
<svg version="1.1" id="Capa_1" xmlns="http://www.w3.org/2000/svg" xmlns:xlink="http://www.w3.org/1999/xlink" x="0px" y="0px"
	 viewBox="0 0 483.9 483.9" style="enable-background:new 0 0 483.9 483.9;" xml:space="preserve">
<g>
	<g>
		<path d="M398.95,230.1h-53.9v-54c0-6.6-5.4-12-12-12s-12,5.4-12,12v54h-53.9c-6.6,0-12,5.4-12,12s5.4,12,12,12h53.9V308
			c0,6.6,5.4,12,12,12s12-5.4,12-12v-53.9h53.9c6.6,0,12-5.4,12-12S405.55,230.1,398.95,230.1z"/>
		<path d="M235.35,324.7h-3.2c-12.5-0.1-25.4-0.1-38.1,0c-0.6-1.8-1.2-3.6-1.8-5.3c-1.5-4.3-2.9-8.4-3.8-12.4
			c-7.1-31-8.6-64.4-4.8-102.2c1.9-18.1,5.1-32.7,10-45.6c10.9,0.2,21.9,0.1,32.6,0.1h8.3c26.9-0.1,44.3-17.5,44.4-44.5
			c0-8.1,0-16.3,0-24.2c0-3.6,0-7.1,0-10.7c0-3.8,0-7.5,0-11.3c0-8.1,0-16.5,0-24.8c-0.2-25.9-17.8-43.5-43.6-43.7
			c-6-0.1-12.1,0-18,0c-8.6,0-17.5,0.1-26.1-0.1c-0.1,0-0.2,0-0.3,0c-6.5,0-11.8,5.2-12,11.7c-0.2,6.6,5.1,12.1,11.7,12.3
			c9,0.2,18.1,0.2,26.9,0.1c5.8,0,11.8-0.1,17.7,0c12.9,0.1,19.7,7,19.8,19.9c0.1,8.1,0.1,16.5,0,24.5c0,3.8,0,7.5,0,11.3
			c0,3.6,0,7.1,0,10.7c0,7.9,0,16.1,0,24.1c-0.1,13.8-6.8,20.6-20.5,20.6h-8.3c-11.6,0-23.6,0.1-35.3-0.1c-6-0.1-14.1,1.9-18.3,12.1
			c-6.5,15.8-10.6,33.3-12.8,55.1c-4.2,40.4-2.4,76.4,5.2,110c1.2,5.2,2.9,10.1,4.5,14.8c1,2.8,1.8,5.4,2.6,8
			c1.5,5.2,6.1,13.8,19,13.6c13.6-0.2,27.5-0.2,40.9-0.1h3.2c12.9,0.1,19.7,6.9,19.8,19.8c0.1,23.1,0.1,47.1,0,71.2
			c0,13.4-6.9,20.2-20.5,20.2c-4.5,0-9.1,0-13.5-0.1c-9-0.1-18.4-0.3-27.7,0.3c-6.6,0.4-11.7,6-11.3,12.6c0.4,6.4,5.6,11.3,12,11.3
			c0.2,0,0.5,0,0.7,0c8.5-0.5,17.1-0.4,26.1-0.2c4.6,0.1,9.3,0.1,14,0.1c26.9-0.1,44.3-17.4,44.4-44.1c0.1-24.2,0.1-48.2,0-71.4
			C278.85,342.4,261.35,324.9,235.35,324.7z"/>
		<path d="M118.55,374.3c-2.1-6.3-9-9.6-15.2-7.5c-6.3,2.1-9.6,8.9-7.5,15.2c1.7,5,6.4,8.2,11.4,8.2c1.3,0,2.6-0.2,3.9-0.6
			C117.35,387.4,120.75,380.6,118.55,374.3z"/>
		<path d="M143.45,448.5c-4.5,4.9-4.2,12.5,0.7,17c2.3,2.1,5.2,3.2,8.1,3.2c3.2,0,6.5-1.3,8.8-3.9c4.5-4.9,4.2-12.5-0.7-17
			C155.55,443.3,147.95,443.6,143.45,448.5z"/>
		<path d="M106.55,331.6c-1.5-6.5-7.9-10.6-14.3-9.1c-6.5,1.4-10.5,7.9-9.1,14.3c1.2,5.6,6.2,9.4,11.7,9.4c0.9,0,1.7-0.1,2.6-0.3
			C103.95,344.5,108.05,338.1,106.55,331.6z"/>
		<path d="M119.35,409.6c-5.8,3.2-7.9,10.5-4.8,16.3c2.2,4,6.3,6.2,10.5,6.2c2,0,3.9-0.5,5.8-1.5c5.8-3.2,8-10.5,4.8-16.3
			C132.45,408.6,125.15,406.5,119.35,409.6z"/>
		<path d="M88.75,301.1c6.6-0.7,11.4-6.6,10.6-13.2c-0.7-6.6-6.6-11.4-13.2-10.6c-6.6,0.7-11.4,6.6-10.6,13.2
			c0.7,6.1,5.9,10.7,11.9,10.7C87.85,301.2,88.25,301.2,88.75,301.1z"/>
		<path d="M102.25,120.1c1.3,0.4,2.6,0.6,3.9,0.6c5,0,9.7-3.1,11.4-8.1l0,0c2.1-6.3-1.2-13.1-7.5-15.2s-13.1,1.2-15.2,7.5
			C92.65,111.2,95.95,118,102.25,120.1z"/>
		<path d="M84.95,255.6c6.6,0,12-5.4,12-12l0,0c0-6.6-5.4-12-12-12s-12,5.4-12,12S78.35,255.6,84.95,255.6z"/>
		<path d="M118.25,77.4c1.8,0.9,3.6,1.3,5.5,1.3c4.3,0,8.5-2.4,10.7-6.5c3-5.9,0.7-13.1-5.2-16.2c-5.9-3-13.1-0.7-16.2,5.2
			C110.05,67.1,112.45,74.3,118.25,77.4z"/>
		<path d="M150.15,41.6c3,0,6-1.1,8.4-3.4c4.7-4.6,4.8-12.2,0.2-17c-4.6-4.7-12.2-4.8-17-0.2c-4.7,4.6-4.8,12.2-0.2,17
			C143.85,40.4,146.95,41.6,150.15,41.6z"/>
		<path d="M86.05,209.9c0.4,0,0.8,0.1,1.2,0.1c6.1,0,11.3-4.6,11.9-10.8c0.7-6.6-4.1-12.5-10.7-13.2s-12.5,4.1-13.1,10.7
			C74.75,203.4,79.45,209.2,86.05,209.9z"/>
		<path d="M91.75,164.6c0.8,0.2,1.6,0.3,2.5,0.3c5.6,0,10.6-3.9,11.7-9.6c1.3-6.5-2.8-12.8-9.3-14.2s-12.8,2.8-14.2,9.3
			C81.05,156.9,85.25,163.2,91.75,164.6z"/>
	</g>
</g>
<g>
</g>
<g>
</g>
<g>
</g>
<g>
</g>
<g>
</g>
<g>
</g>
<g>
</g>
<g>
</g>
<g>
</g>
<g>
</g>
<g>
</g>
<g>
</g>
<g>
</g>
<g>
</g>
<g>
</g>
</svg>
