<?xml version="1.0" encoding="iso-8859-1"?>
<!-- Generator: Adobe Illustrator 19.1.0, SVG Export Plug-In . SVG Version: 6.00 Build 0)  -->
<svg version="1.1" id="Capa_1" xmlns="http://www.w3.org/2000/svg" xmlns:xlink="http://www.w3.org/1999/xlink" x="0px" y="0px"
	 viewBox="0 0 484.64 484.64" style="enable-background:new 0 0 484.64 484.64;" xml:space="preserve">
<g>
	<g>
		<path d="M127.135,198.92c37.9,0,68.8-30.9,68.8-68.8s-30.8-68.8-68.8-68.8s-68.8,30.9-68.8,68.8S89.235,198.92,127.135,198.92z
			 M127.135,85.32c24.7,0,44.8,20.1,44.8,44.8s-20.1,44.8-44.8,44.8s-44.8-20.1-44.8-44.8S102.435,85.32,127.135,85.32z"/>
		<path d="M127.135,227.32c-51.1,0-114.7,31.8-127.1,183c-0.5,6.6,4.4,12.4,11,12.9s12.4-4.4,12.9-11c3.9-47.4,13.3-85.2,28-112.2
			c17.8-32.8,42.4-48.8,75.3-48.8s57.5,16,75.3,48.8c14.6,27.1,24,64.8,28,112.2c0.5,6.3,5.8,11,11.9,11c0.3,0,0.7,0,1,0
			c6.6-0.5,11.5-6.3,11-12.9C241.835,259.02,178.235,227.32,127.135,227.32z"/>
		<path d="M312.735,130.32L312.735,130.32L312.735,130.32c0-0.1,0-0.2,0-0.2c0-6.6-5.4-12-12-12s-12,5.4-12,12v0.1
			c0,0.1,0,0.1,0,0.2c0,6.6,5.4,12,12,12c0,0,0,0,0.1,0C307.435,142.32,312.735,136.92,312.735,130.32z"/>
		<path d="M317.335,102.02c3.1,0,6.1-1.2,8.5-3.5c4.7-4.7,4.7-12.3,0-17s-12.3-4.7-17,0s-4.7,12.3,0,17
			C311.235,100.82,314.235,102.02,317.335,102.02z"/>
		<path d="M308.935,162.02c-4.7,4.7-4.6,12.3,0.1,17c2.3,2.3,5.4,3.5,8.5,3.5s6.2-1.2,8.5-3.5c4.7-4.7,4.6-12.3-0.1-17
			C321.235,157.22,313.635,157.32,308.935,162.02z"/>
		<path d="M357.435,85.32c6.6,0,12-5.4,12-12s-5.4-12-12-12s-12,5.4-12,12C345.435,80.02,350.835,85.32,357.435,85.32z"/>
		<path d="M357.635,174.92c-6.6,0-12,5.4-12,12s5.4,12,12,12l0,0c6.6,0,12-5.4,12-12C369.635,180.22,364.235,174.92,357.635,174.92z
			"/>
		<path d="M397.635,101.92c3.1,0,6.2-1.2,8.5-3.5c4.7-4.7,4.7-12.3,0-17s-12.3-4.7-17,0s-4.7,12.3,0,17
			C391.435,100.72,394.535,101.92,397.635,101.92z"/>
		<path d="M414.235,118.02c-6.6,0-12,5.4-12,12c0,6.6,5.4,12,12,12l0,0c6.6,0,12-5.4,12-12
			C426.335,123.32,420.935,118.02,414.235,118.02z"/>
		<path d="M406.235,178.62c4.7-4.7,4.6-12.3,0-17c-4.7-4.7-12.3-4.7-17,0s-4.6,12.3,0.1,17c2.3,2.3,5.4,3.5,8.5,3.5
			C400.835,182.22,403.935,181.02,406.235,178.62z"/>
		<path d="M468.935,377.42c6.5-1.2,10.8-7.5,9.6-14c-1.2-6.5-7.5-10.8-14-9.6c-6.5,1.2-10.8,7.5-9.6,14c1.1,5.8,6.1,9.8,11.8,9.8
			C467.435,377.62,468.135,377.62,468.935,377.42z"/>
		<path d="M307.635,239.32c-5.8,3.2-8,10.5-4.8,16.3c2.2,4,6.3,6.3,10.5,6.3c1.9,0,3.9-0.5,5.7-1.5c5.8-3.2,8-10.4,4.8-16.3
			C320.735,238.32,313.535,236.22,307.635,239.32z"/>
		<path d="M263.735,310.22c-6.3-2.2-13.1,1.1-15.3,7.3c-2.2,6.3,1.1,13.1,7.3,15.3c1.3,0.5,2.7,0.7,4,0.7c4.9,0,9.6-3.1,11.3-8
			C273.335,319.32,270.035,312.42,263.735,310.22z"/>
		<path d="M357.435,227.32c-6.6,0-12,5.4-12,12s5.4,12,12,12s12-5.4,12-12C369.435,232.62,364.035,227.22,357.435,227.32z"/>
		<path d="M286.935,270.82c-5.4-3.8-12.9-2.5-16.7,3c-3.8,5.4-2.5,12.9,3,16.7c2.1,1.5,4.5,2.2,6.9,2.2c3.8,0,7.5-1.8,9.8-5.1
			C293.735,282.12,292.335,274.62,286.935,270.82z"/>
		<path d="M407.135,239.22c-5.8-3.1-13.1-1-16.3,4.9c-3.1,5.8-1,13.1,4.9,16.3c1.8,1,3.8,1.4,5.7,1.4c4.3,0,8.4-2.3,10.6-6.3
			C415.135,249.72,412.935,242.42,407.135,239.22z"/>
		<path d="M459.135,332.72c6.3-2.2,9.5-9.1,7.3-15.3c-2.2-6.2-9.1-9.5-15.3-7.3s-9.5,9.1-7.3,15.3c1.7,4.9,6.4,8,11.3,8
			C456.535,333.32,457.835,333.12,459.135,332.72z"/>
		<path d="M444.635,273.62c-3.8-5.4-11.3-6.7-16.7-2.9c-5.4,3.8-6.7,11.3-2.9,16.7c2.3,3.3,6.1,5.1,9.8,5.1c2.4,0,4.8-0.7,6.9-2.2
			C447.135,286.52,448.435,279.02,444.635,273.62z"/>
		<path d="M481.135,402.82c-2.2-2.2-5.3-3.5-8.5-3.5s-6.3,1.3-8.5,3.5s-3.5,5.3-3.5,8.5s1.3,6.3,3.5,8.5s5.3,3.5,8.5,3.5
			s6.3-1.3,8.5-3.5s3.5-5.3,3.5-8.5C484.735,408.12,483.435,405.02,481.135,402.82z"/>
	</g>
</g>
<g>
</g>
<g>
</g>
<g>
</g>
<g>
</g>
<g>
</g>
<g>
</g>
<g>
</g>
<g>
</g>
<g>
</g>
<g>
</g>
<g>
</g>
<g>
</g>
<g>
</g>
<g>
</g>
<g>
</g>
</svg>
