<?xml version="1.0" encoding="UTF-8" standalone="no"?>
<svg xmlns:rdf="http://www.w3.org/1999/02/22-rdf-syntax-ns#" xmlns="http://www.w3.org/2000/svg" xml:space="preserve" height="66" viewBox="0 0 120 120" version="1.1" xmlns:cc="http://creativecommons.org/ns#" xmlns:dc="http://purl.org/dc/elements/1.1/">
    <defs>
        <clipPath id="a" clipPathUnits="userSpaceOnUse">
        <path d="m0 0h2467.7v3078.5h-2467.7v-3078.5z"/>
        </clipPath>
    </defs>
    <g transform="matrix(1.25 0 0 -1.25 -72.974 438.62)">
        <g transform="matrix(.19707 0 0 .19707 -56.668 -255.78)">
            <g fill="#c82333" clip-path="url(#a)">
                <path d="m865.9 2856.7 77.609 134.02 37.504-134.02-37.504-133.99-77.609 133.99zm-37.829-21.76 77.622-134-135.18 34.63-97.668 99.37h155.23zm77.606 177.56-77.606-134.02h-155.23l97.668 99.37 135.17 34.65zm110.8-110.19-47.353 176.15-176.73-47.21-26.161-45.99-53.085 0.38-129.36-128.95 129.36-128.92h0.003l53.063 0.39 26.199-45.99 176.71-47.21 47.353 176.13-26.892 45.61 26.892 45.61"/>
            </g>
        </g>
    </g>
</svg>
